<?xml version="1.0" encoding="UTF-8" standalone="no"?>
<svg width="22px" height="20px" viewBox="0 0 22 20" version="1.1" xmlns="http://www.w3.org/2000/svg" xmlns:xlink="http://www.w3.org/1999/xlink">
    <!-- Generator: Sketch 42 (36781) - http://www.bohemiancoding.com/sketch -->
    <title>Page 1</title>
    <desc>Created with Sketch.</desc>
    <defs></defs>
    <g id="annotations" stroke="none" stroke-width="1" fill="none" fill-rule="evenodd" stroke-linecap="round" stroke-linejoin="round">
        <g id="Home" transform="translate(-529.000000, -781.000000)" stroke="#F37321" stroke-width="0.882">
            <path d="M546.208525,782.271668 C544.26053,781.677644 542.474973,782.06646 540.931184,783.352913 C540.582384,783.643325 540.297803,784.00094 539.98426,784.327353 C539.797897,784.114944 539.614053,783.872534 539.397469,783.658925 C538.066486,782.353272 536.453441,781.803649 534.560851,782.092861 C532.30561,782.436075 530.562866,784.053742 530.108292,786.18263 C530.069256,786.369837 530.035258,786.558245 530,786.746653 L530,787.747494 C530.04785,788.028306 530.090663,788.310317 530.146068,788.589929 C530.4445,790.106792 531.220173,791.394445 532.343386,792.472089 C533.398602,793.481331 534.516779,794.43057 535.6274,795.38701 C536.862683,796.451454 538.070264,797.542299 539.091481,798.803551 C539.406283,799.193567 539.69716,799.600384 539.99937,800 L540.042183,800 C540.319209,799.602784 540.579865,799.194767 540.877038,798.810751 C542.065731,797.271087 543.537745,795.989434 545.028647,794.725782 C546.110307,793.808944 547.204558,792.904107 548.132595,791.837263 C549.031669,790.80162 549.658755,789.643573 549.900523,788.310317 C549.93704,788.109909 549.966001,787.908301 550,787.707893 L550,786.786255 C549.945854,786.521044 549.908078,786.251032 549.836303,785.990622 C549.331361,784.128145 548.121262,782.854892 546.208525,782.271668 Z" id="Page-1"></path>
        </g>
    </g>
</svg>