<?xml version="1.0" encoding="UTF-8" standalone="no"?>
<svg width="20px" height="20px" viewBox="0 0 20 20" version="1.1" xmlns="http://www.w3.org/2000/svg" xmlns:xlink="http://www.w3.org/1999/xlink">
    <!-- Generator: Sketch 42 (36781) - http://www.bohemiancoding.com/sketch -->
    <title>Page 1</title>
    <desc>Created with Sketch.</desc>
    <defs>
        <polygon id="path-1" points="20 10.0001 20 20 0 20 0 10.0001 0 0.0002 20 0.0002"></polygon>
    </defs>
    <g id="annotations" stroke="none" stroke-width="1" fill="none" fill-rule="evenodd">
        <g id="Home" transform="translate(-45.000000, -222.000000)">
            <g id="Page-1" transform="translate(45.000000, 222.000000)">
                <mask id="mask-2" fill="white">
                    <use xlink:href="#path-1"></use>
                </mask>
                <g id="Clip-2"></g>
                <path d="M10,8.0002 C8.897,8.0002 8,8.8962 8,10.0002 C8,11.1032 8.897,12.0002 10,12.0002 C11.103,12.0002 12,11.1032 12,10.0002 C12,8.8962 11.103,8.0002 10,8.0002 L10,8.0002 Z M10,14.0002 C7.794,14.0002 6,12.2052 6,10.0002 C6,7.7942 7.794,6.0002 10,6.0002 C12.206,6.0002 14,7.7942 14,10.0002 C14,12.2052 12.206,14.0002 10,14.0002 L10,14.0002 Z M9.654,18.0002 L10.346,18.0002 L11.27,15.8852 L11.714,15.7522 C12.083,15.6422 12.466,15.4842 12.884,15.2702 L13.285,15.0642 L15.416,15.9002 L15.908,15.4082 L15.058,13.2622 L15.283,12.8502 C15.475,12.4992 15.628,12.1272 15.751,11.7142 L15.884,11.2702 L18,10.3462 L18,9.6542 L15.888,8.7312 L15.753,8.2912 C15.625,7.8692 15.467,7.4852 15.283,7.1502 L15.058,6.7392 L15.908,4.5862 L15.418,4.0992 L13.275,4.9392 L12.868,4.7222 C12.5,4.5252 12.123,4.3702 11.714,4.2482 L11.27,4.1152 L10.346,2.0002 L9.654,2.0002 L8.73,4.1152 L8.286,4.2482 C7.888,4.3662 7.524,4.5182 7.142,4.7222 L6.734,4.9392 L4.592,4.0992 L4.102,4.5862 L4.953,6.7392 L4.727,7.1502 C4.543,7.4872 4.384,7.8712 4.256,8.2912 L4.122,8.7322 L2,9.6552 L2,10.3442 L4.125,11.2692 L4.258,11.7142 C4.381,12.1262 4.534,12.4972 4.727,12.8502 L4.953,13.2622 L4.102,15.4082 L4.594,15.9002 L6.724,15.0642 L7.125,15.2702 C7.566,15.4952 7.924,15.6452 8.286,15.7522 L8.73,15.8852 L9.654,18.0002 Z M11.654,20.0002 L8.346,20.0002 L7.261,17.5172 C7.055,17.4402 6.846,17.3532 6.626,17.2512 L4.106,18.2402 L1.758,15.8932 L2.755,13.3792 C2.658,13.1722 2.57,12.9592 2.49,12.7382 L0,11.6552 L0,8.3442 L2.493,7.2612 C2.573,7.0392 2.661,6.8262 2.755,6.6212 L1.757,4.0952 L4.108,1.7612 L6.621,2.7472 C6.833,2.6482 7.046,2.5602 7.262,2.4812 L8.346,0.0002 L11.654,0.0002 L12.738,2.4802 C12.959,2.5602 13.175,2.6482 13.388,2.7472 L15.902,1.7612 L18.252,4.0952 L17.254,6.6212 C17.349,6.8262 17.437,7.0392 17.518,7.2622 L20,8.3462 L20,11.6542 L17.52,12.7372 C17.44,12.9582 17.353,13.1722 17.255,13.3792 L18.252,15.8932 L15.904,18.2402 L13.383,17.2512 C13.164,17.3522 12.95,17.4402 12.738,17.5182 L11.654,20.0002 Z" id="Fill-1" fill="#FFFFFF" mask="url(#mask-2)"></path>
            </g>
        </g>
    </g>
</svg>