<?xml version="1.0" encoding="UTF-8" standalone="no"?>
<svg width="40px" height="40px" viewBox="0 0 40 40" version="1.1" xmlns="http://www.w3.org/2000/svg" xmlns:xlink="http://www.w3.org/1999/xlink">
    <!-- Generator: Sketch 42 (36781) - http://www.bohemiancoding.com/sketch -->
    <title>Page 1</title>
    <desc>Created with Sketch.</desc>
    <defs>
        <polygon id="path-1" points="9.31703704 0.45804878 9.31703704 5.94829268 0.364246914 5.94829268 0.364246914 0.45804878 9.31703704 0.45804878"></polygon>
        <polygon id="path-3" points="0.398123457 0.0648780488 5.95614815 0.0648780488 5.95614815 8.90858537 0.398123457 8.90858537 0.398123457 0.0648780488"></polygon>
    </defs>
    <g id="annotations" stroke="none" stroke-width="1" fill="none" fill-rule="evenodd">
        <g id="Home" transform="translate(-166.000000, -22.000000)">
            <g id="Page-1" transform="translate(166.000000, 22.000000)">
                <g id="Group-3" transform="translate(30.617284, 17.008488)">
                    <mask id="mask-2" fill="white">
                        <use xlink:href="#path-1"></use>
                    </mask>
                    <g id="Clip-2"></g>
                    <path d="M9.10498765,2.92487805 L0.364246914,0.45804878 C0.587950617,1.33658537 0.707950617,2.25560976 0.707950617,3.20292683 C0.707950617,4.1502439 0.587950617,5.06926829 0.364246914,5.94829268 L9.10498765,3.48146341 C9.38795062,3.40146341 9.38795062,3.00487805 9.10498765,2.92487805" id="Fill-1" fill="#FFFFFF" mask="url(#mask-2)"></path>
                </g>
                <path d="M8.60923457,20.211561 C8.60923457,19.2642439 8.72923457,18.3452195 8.95293827,17.4666829 L0.212691358,19.9335122 C-0.0707654321,20.0130244 -0.0707654321,20.4096098 0.212691358,20.4896098 L8.95293827,22.956439 C8.72923457,22.0779024 8.60923457,21.158878 8.60923457,20.211561" id="Fill-4" fill="#FFFFFF"></path>
                <path d="M8.51496296,9.22882927 L10.8685432,13.4956585 C11.5208889,12.6337073 12.2961975,11.8683415 13.1682963,11.2234634 L8.84879012,8.89907317 C8.63348148,8.78297561 8.3974321,9.01565854 8.51496296,9.22882927" id="Fill-6" fill="#FFFFFF"></path>
                <path d="M29.0661728,26.9277073 C28.4133333,27.7891707 27.6385185,28.5545366 26.7664198,29.1994146 L31.0854321,31.5242927 C31.3012346,31.6403902 31.5367901,31.4072195 31.4197531,31.1945366 L29.0661728,26.9277073 Z" id="Fill-8" fill="#FFFFFF"></path>
                <path d="M17.1882963,31.0914634 L19.6855802,39.7256098 C19.7665679,40.005122 20.1680494,40.005122 20.249037,39.7256098 L22.746321,31.0914634 C21.8569383,31.312439 20.9260741,31.4309756 19.9670617,31.4309756 C19.0085432,31.4309756 18.077679,31.312439 17.1882963,31.0914634" id="Fill-10" fill="#FFFFFF"></path>
                <path d="M10.8683457,26.9277073 L8.51476543,31.1945366 C8.3977284,31.4072195 8.63328395,31.6403902 8.84908642,31.5242927 L13.1680988,29.1994146 C12.296,28.5545366 11.5211852,27.7891707 10.8683457,26.9277073" id="Fill-12" fill="#FFFFFF"></path>
                <path d="M29.0661728,13.4954634 L31.4197531,9.22863415 C31.5367901,9.01595122 31.3012346,8.78278049 31.0854321,8.89887805 L26.7664198,11.2237561 C27.6385185,11.8686341 28.4133333,12.634 29.0661728,13.4954634" id="Fill-14" fill="#FFFFFF"></path>
                <g id="Group-18" transform="translate(16.790123, 0.423122)">
                    <mask id="mask-4" fill="white">
                        <use xlink:href="#path-3"></use>
                    </mask>
                    <g id="Clip-17"></g>
                    <path d="M5.95614815,8.90858537 L3.4588642,0.274439024 C3.37787654,-0.00507317073 2.97639506,-0.00507317073 2.89540741,0.274439024 L0.398123457,8.90858537 C1.28750617,8.68760976 2.21837037,8.56907317 3.17738272,8.56907317 C4.13590123,8.56907317 5.06676543,8.68760976 5.95614815,8.90858537" id="Fill-16" fill="#FFFFFF" mask="url(#mask-4)"></path>
                </g>
                <path d="M23.3150617,16.4194146 L16.3249383,19.4003902 C16.1353086,19.4813659 16.1649383,19.7555122 16.3679012,19.7945366 L19.1051852,20.3213659 C19.1955556,20.3389268 19.2637037,20.4125854 19.2735802,20.5033171 L19.5609877,23.2433171 C19.5822222,23.4457561 19.8558025,23.4999024 19.9540741,23.3203902 L23.582716,16.7086829 C23.6775309,16.5355122 23.4977778,16.3413659 23.3150617,16.4194146" id="Fill-19" fill="#FFFFFF"></path>
            </g>
        </g>
    </g>
</svg>