<?xml version="1.0" encoding="UTF-8" standalone="no"?>
<svg width="16px" height="16px" viewBox="0 0 16 16" version="1.1" xmlns="http://www.w3.org/2000/svg" xmlns:xlink="http://www.w3.org/1999/xlink">
    <!-- Generator: Sketch 42 (36781) - http://www.bohemiancoding.com/sketch -->
    <title>mag glass</title>
    <desc>Created with Sketch.</desc>
    <defs></defs>
    <g id="annotations" stroke="none" stroke-width="1" fill="none" fill-rule="evenodd">
        <g id="Home" transform="translate(-1016.000000, -413.000000)" fill="#93A7B1">
            <g id="mag-glass" transform="translate(1016.000000, 413.000000)">
                <path d="M6.03577236,3.2 C5.64552846,3.2 5.33333333,3.51219512 5.33333333,3.90243902 C5.33333333,4.29268293 5.64552846,4.60487805 6.03577236,4.60487805 C7.28455285,4.60487805 8.2796748,5.6195122 8.2796748,6.84878049 C8.2796748,7.23902439 8.59186992,7.55121951 8.98211382,7.55121951 C9.37235772,7.55121951 9.68455285,7.23902439 9.68455285,6.84878049 C9.70406504,4.83902439 8.06504065,3.2 6.03577236,3.2 L6.03577236,3.2 Z" id="Shape"></path>
                <path d="M11.5512195,10.497561 C12.4292683,9.38536585 12.9560976,8 12.9560976,6.47804878 C12.9560976,2.90731707 10.0487805,0 6.47804878,0 C2.90731707,0 0,2.90731707 0,6.47804878 C0,10.0487805 2.90731707,12.9560976 6.47804878,12.9560976 C8.0195122,12.9560976 9.44390244,12.4097561 10.5560976,11.5121951 L14.7317073,15.6878049 C14.8682927,15.8243902 15.0439024,15.902439 15.2390244,15.902439 C15.4146341,15.902439 15.6097561,15.8243902 15.7463415,15.6878049 C16.0195122,15.395122 16.0195122,14.9463415 15.7268293,14.6731707 L11.5512195,10.497561 Z M1.42439024,6.47804878 C1.42439024,3.68780488 3.68780488,1.42439024 6.47804878,1.42439024 C9.26829268,1.42439024 11.5317073,3.68780488 11.5317073,6.47804878 C11.5317073,9.26829268 9.26829268,11.5317073 6.47804878,11.5317073 C3.68780488,11.5317073 1.42439024,9.26829268 1.42439024,6.47804878 L1.42439024,6.47804878 Z" id="Shape"></path>
            </g>
        </g>
    </g>
</svg>