<?xml version="1.0" encoding="UTF-8" standalone="no"?>
<svg width="18px" height="17px" viewBox="0 0 18 17" version="1.1" xmlns="http://www.w3.org/2000/svg" xmlns:xlink="http://www.w3.org/1999/xlink">
    <!-- Generator: Sketch 42 (36781) - http://www.bohemiancoding.com/sketch -->
    <title>Page 1</title>
    <desc>Created with Sketch.</desc>
    <defs></defs>
    <g id="annotations" stroke="none" stroke-width="1" fill="none" fill-rule="evenodd">
        <g id="Home" transform="translate(-45.000000, -167.000000)" fill="#FFFFFF">
            <path d="M62.9995537,167.000268 L58.7009397,169.266501 L54.0988521,167.504569 L50.598195,169.271857 L45,167.196633 L45,181.619661 L50.7079811,183.735943 L54.1988198,181.973119 L58.8178663,183.741299 L62.9995537,181.536652 L62.9995537,167.000268 Z M46.7842462,180.378097 L46.7842462,169.76277 L49.7600724,170.865986 L49.7600724,181.48042 L46.7842462,180.378097 Z M55.0414053,180.384345 L55.0414053,169.777051 L57.8672799,170.858845 L57.8672799,181.466139 L55.0414053,180.384345 Z M51.5452111,170.793688 L53.2562666,169.930573 L53.2562666,180.449503 L51.5452111,181.312617 L51.5452111,170.793688 Z M59.6533112,170.782977 L61.214415,169.959135 L61.214415,180.460214 L59.6533112,181.284055 L59.6533112,170.782977 Z" id="Page-1"></path>
        </g>
    </g>
</svg>