<?xml version="1.0" encoding="UTF-8" standalone="no"?>
<svg width="20px" height="20px" viewBox="0 0 20 20" version="1.1" xmlns="http://www.w3.org/2000/svg" xmlns:xlink="http://www.w3.org/1999/xlink">
    <!-- Generator: Sketch 42 (36781) - http://www.bohemiancoding.com/sketch -->
    <title>Page 1</title>
    <desc>Created with Sketch.</desc>
    <defs>
        <polygon id="path-1" points="0.0003 20 20 20 20 0.0006 0.0003 0.0006 0.0003 20"></polygon>
    </defs>
    <g id="annotations" stroke="none" stroke-width="1" fill="none" fill-rule="evenodd">
        <g id="Home" transform="translate(-45.000000, -335.000000)">
            <g id="Page-1" transform="translate(45.000000, 335.000000)">
                <mask id="mask-2" fill="white">
                    <use xlink:href="#path-1"></use>
                </mask>
                <g id="Clip-2"></g>
                <path d="M13.5603,17.1536 C14.0073,16.2646 14.3643,15.1986 14.6123,14.0006 L16.9173,14.0006 C16.1323,15.3526 14.9643,16.4516 13.5603,17.1536 L13.5603,17.1536 Z M3.0823,14.0006 L5.3883,14.0006 C5.6353,15.1986 5.9933,16.2646 6.4393,17.1536 C5.0363,16.4516 3.8683,15.3526 3.0823,14.0006 L3.0823,14.0006 Z M6.4393,2.8466 C5.9933,3.7356 5.6353,4.8006 5.3883,6.0006 L3.0823,6.0006 C3.8683,4.6476 5.0363,3.5486 6.4393,2.8466 L6.4393,2.8466 Z M10.0003,2.0006 C10.8433,2.0006 11.9483,3.4806 12.5553,6.0006 L7.4453,6.0006 C8.0513,3.4806 9.1573,2.0006 10.0003,2.0006 L10.0003,2.0006 Z M2.0003,10.0006 C2.0003,9.3076 2.0973,8.6406 2.2633,8.0006 L5.0933,8.0006 C5.0333,8.6426 5.0003,9.3106 5.0003,10.0006 C5.0003,10.6896 5.0333,11.3566 5.0933,12.0006 L2.2633,12.0006 C2.0973,11.3596 2.0003,10.6916 2.0003,10.0006 L2.0003,10.0006 Z M7.1083,12.0006 C7.0403,11.3716 7.0003,10.7066 7.0003,10.0006 C7.0003,9.2936 7.0403,8.6286 7.1083,8.0006 L12.8923,8.0006 C12.9593,8.6286 13.0003,9.2936 13.0003,10.0006 C13.0003,10.7066 12.9593,11.3716 12.8923,12.0006 L7.1083,12.0006 Z M10.0003,18.0006 C9.1573,18.0006 8.0513,16.5186 7.4453,14.0006 L12.5553,14.0006 C11.9483,16.5186 10.8433,18.0006 10.0003,18.0006 L10.0003,18.0006 Z M18.0003,10.0006 C18.0003,10.6916 17.9023,11.3596 17.7363,12.0006 L14.9073,12.0006 C14.9673,11.3566 15.0003,10.6896 15.0003,10.0006 C15.0003,9.3106 14.9673,8.6426 14.9073,8.0006 L17.7363,8.0006 C17.9023,8.6406 18.0003,9.3076 18.0003,10.0006 L18.0003,10.0006 Z M16.9173,6.0006 L14.6123,6.0006 C14.3643,4.8006 14.0073,3.7356 13.5603,2.8466 C14.9643,3.5486 16.1323,4.6476 16.9173,6.0006 L16.9173,6.0006 Z M10.0003,0.0006 C4.4863,0.0006 0.0003,4.4856 0.0003,10.0006 C0.0003,15.5136 4.4863,20.0006 10.0003,20.0006 C15.5143,20.0006 20.0003,15.5136 20.0003,10.0006 C20.0003,4.4856 15.5143,0.0006 10.0003,0.0006 L10.0003,0.0006 Z" id="Fill-1" fill="#FFFFFF" mask="url(#mask-2)"></path>
            </g>
        </g>
    </g>
</svg>