<?xml version="1.0" encoding="UTF-8" standalone="no"?>
<svg width="79px" height="80px" viewBox="0 0 79 80" version="1.1" xmlns="http://www.w3.org/2000/svg" xmlns:xlink="http://www.w3.org/1999/xlink">
    <!-- Generator: Sketch 42 (36781) - http://www.bohemiancoding.com/sketch -->
    <title>Group 19</title>
    <desc>Created with Sketch.</desc>
    <defs>
        <polygon id="path-1" points="78.817734 78.8161576 78.817734 0.0118226601 0.00118226601 0.0118226601 0.00118226601 78.8161576 78.817734 78.8161576"></polygon>
    </defs>
    <g id="annotations" stroke="none" stroke-width="1" fill="none" fill-rule="evenodd">
        <g id="Home" transform="translate(-1065.000000, -953.000000)">
            <g id="Group-19" transform="translate(1065.000000, 953.000000)">
                <g id="Group-3" transform="translate(0.000000, 0.250903)">
                    <mask id="mask-2" fill="white">
                        <use xlink:href="#path-1"></use>
                    </mask>
                    <g id="Clip-2"></g>
                    <path d="M70.9371429,64.5580296 L63.0553695,60.6171429 L63.0553695,49.724532 L70.9371429,45.7836453 L70.9371429,64.5580296 Z M51.3469951,31.5255172 L51.1184236,31.5255172 C44.6514286,31.4664039 39.4100493,26.1974384 39.4100493,19.7146798 C39.4100493,13.1964532 44.7105419,7.8920197 51.2327094,7.8920197 C57.750936,7.8920197 63.0553695,13.1964532 63.0553695,19.7146798 C63.0553695,26.1974384 57.8100493,31.4664039 51.3469951,31.5255172 L51.3469951,31.5255172 Z M55.1735961,44.8535961 L55.1735961,65.4880788 L55.1735961,70.9343842 L7.88295567,70.9343842 L7.88295567,39.4072906 L19.59133,39.4072906 C19.626798,39.4072906 19.6662069,39.4191133 19.7056158,39.4191133 C19.7450246,39.4191133 19.7804926,39.4072906 19.8199015,39.4072906 L51.1184236,39.4072906 C51.1538916,39.4072906 51.1933005,39.4191133 51.2327094,39.4191133 C51.2721182,39.4191133 51.3075862,39.4072906 51.3469951,39.4072906 L55.1735961,39.4072906 L55.1735961,44.8535961 Z M19.7056158,7.8920197 C26.2238424,7.8920197 31.5282759,13.1964532 31.5282759,19.7146798 C31.5282759,26.1974384 26.2829557,31.4664039 19.8199015,31.5255172 L19.59133,31.5255172 C13.124335,31.4664039 7.88295567,26.1974384 7.88295567,19.7146798 C7.88295567,13.1964532 13.1834483,7.8920197 19.7056158,7.8920197 L19.7056158,7.8920197 Z M35.4691626,31.4191133 C35.4967488,31.4585222 35.5322167,31.4861084 35.559803,31.5255172 L35.3785222,31.5255172 C35.4061084,31.4861084 35.4376355,31.4585222 35.4691626,31.4191133 L35.4691626,31.4191133 Z M63.0553695,40.9127094 L63.0553695,35.3797044 C67.8120197,31.777734 70.9371429,26.1265025 70.9371429,19.7146798 C70.9371429,8.84965517 62.0937931,0.0102463054 51.2327094,0.0102463054 C44.7617734,0.0102463054 39.0632512,3.18660099 35.4691626,8.01418719 C31.871133,3.18660099 26.1726108,0.0102463054 19.7056158,0.0102463054 C8.84059113,0.0102463054 0.00118226601,8.84965517 0.00118226601,19.7146798 C0.00118226601,24.1639409 1.53812808,28.2230542 4.03270936,31.5255172 L0.00118226601,31.5255172 L0.00118226601,78.8161576 L63.0553695,78.8161576 L63.0553695,69.4289655 L78.8189163,77.3107389 L78.8189163,33.030936 L63.0553695,40.9127094 Z" id="Fill-1" fill="#607B89" mask="url(#mask-2)"></path>
                </g>
                <path d="M51.2327094,16.0136617 C49.0573399,16.0136617 47.2918227,17.779179 47.2918227,19.9545484 C47.2918227,22.1338588 49.0573399,23.8954351 51.2327094,23.8954351 C53.4120197,23.8954351 55.1735961,22.1338588 55.1735961,19.9545484 C55.1735961,17.779179 53.4120197,16.0136617 51.2327094,16.0136617" id="Fill-4" fill="#607B89"></path>
                <path d="M19.7036453,23.8954351 C21.8790148,23.8954351 23.644532,22.1338588 23.644532,19.9545484 C23.644532,17.779179 21.8790148,16.0136617 19.7036453,16.0136617 C17.5282759,16.0136617 15.7627586,17.779179 15.7627586,19.9545484 C15.7627586,22.1338588 17.5282759,23.8954351 19.7036453,23.8954351" id="Fill-6" fill="#607B89"></path>
            </g>
        </g>
    </g>
</svg>