<?xml version="1.0" encoding="UTF-8" standalone="no"?>
<svg width="80px" height="80px" viewBox="0 0 80 80" version="1.1" xmlns="http://www.w3.org/2000/svg" xmlns:xlink="http://www.w3.org/1999/xlink">
    <!-- Generator: Sketch 42 (36781) - http://www.bohemiancoding.com/sketch -->
    <title>Page 1</title>
    <desc>Created with Sketch.</desc>
    <defs></defs>
    <g id="annotations" stroke="none" stroke-width="1" fill="none" fill-rule="evenodd">
        <g id="Home" transform="translate(-1068.000000, -1324.000000)" fill="#607B89">
            <path d="M1128,1380 L1140,1380 L1140,1364 L1128,1364 L1128,1380 Z M1076,1380 L1088,1380 L1088,1364 L1076,1364 L1076,1380 Z M1140,1356 C1140,1338.356 1125.644,1324 1108,1324 C1090.356,1324 1076,1338.356 1076,1356 L1068,1356 L1068,1388 L1096,1388 L1096,1356 L1084,1356 C1084,1342.764 1094.768,1332 1108,1332 C1121.236,1332 1132,1342.764 1132,1356 L1120,1356 L1120,1388 L1127.264,1388 C1125.608,1392.644 1121.208,1396 1116,1396 L1104,1396 L1104,1404 L1116,1404 C1125.656,1404 1133.736,1397.116 1135.596,1388 L1148,1388 L1148,1356 L1140,1356 Z" id="Page-1"></path>
        </g>
    </g>
</svg>