<?xml version="1.0" encoding="UTF-8" standalone="no"?>
<svg width="88px" height="80px" viewBox="0 0 88 80" version="1.1" xmlns="http://www.w3.org/2000/svg" xmlns:xlink="http://www.w3.org/1999/xlink">
    <!-- Generator: Sketch 42 (36781) - http://www.bohemiancoding.com/sketch -->
    <title>Page 1</title>
    <desc>Created with Sketch.</desc>
    <defs>
        <polygon id="path-1" points="0 0 0 79.1204396 87.9986813 79.1204396 87.9986813 0"></polygon>
    </defs>
    <g id="annotations" stroke="none" stroke-width="1" fill="none" fill-rule="evenodd">
        <g id="Home" transform="translate(-385.000000, -1324.000000)">
            <g id="Page-1" transform="translate(385.000000, 1324.000000)">
                <path d="M39.5595604,26.3723077 C41.9859341,26.3723077 43.9551648,28.3459341 43.9551648,30.7679121 L52.7463736,30.7679121 C52.7463736,25.0448352 49.0628571,20.2140659 43.9551648,18.3942857 L43.9551648,13.1854945 L35.163956,13.1854945 L35.163956,18.3942857 C30.0606593,20.2140659 26.3727473,25.0448352 26.3727473,30.7679121 C26.3727473,38.0382418 32.2892308,43.9547253 39.5595604,43.9547253 C41.9859341,43.9547253 43.9551648,45.9283516 43.9551648,48.3503297 C43.9551648,50.7767033 41.9859341,52.7459341 39.5595604,52.7459341 C37.1331868,52.7459341 35.163956,50.7767033 35.163956,48.3503297 L26.3727473,48.3503297 C26.3727473,54.0734066 30.0606593,58.9085714 35.163956,60.7283516 L35.163956,65.9327473 L43.9551648,65.9327473 L43.9551648,60.7283516 C49.0628571,58.9085714 52.7463736,54.0734066 52.7463736,48.3503297 C52.7463736,41.08 46.8298901,35.1635165 39.5595604,35.1635165 C37.1331868,35.1635165 35.163956,33.1942857 35.163956,30.7679121 C35.163956,28.3459341 37.1331868,26.3723077 39.5595604,26.3723077" id="Fill-1" fill="#607B89"></path>
                <g id="Group-5">
                    <mask id="mask-2" fill="white">
                        <use xlink:href="#path-1"></use>
                    </mask>
                    <g id="Clip-4"></g>
                    <path d="M83.7217582,44.4698901 L78.236044,47.5204396 C78.7723077,44.9094505 79.1195604,42.2501099 79.1195604,39.56 C79.1195604,17.749011 61.3745055,-0.00043956044 39.5591209,-0.00043956044 C17.7437363,-0.00043956044 -0.00131868132,17.749011 -0.00131868132,39.56 C-0.00131868132,61.3753846 17.7437363,79.1204396 39.5591209,79.1204396 L39.5591209,70.3292308 C22.5964835,70.3292308 8.78989011,56.527033 8.78989011,39.56 C8.78989011,22.592967 22.5964835,8.79076923 39.5591209,8.79076923 C56.5261538,8.79076923 70.3283516,22.592967 70.3283516,39.56 C70.3283516,42.0874725 70.0030769,44.5973626 69.3964835,47.0325275 L65.058022,39.2347253 L57.3745055,43.5072527 L68.2843956,63.1204396 L87.9986813,52.1534066 L83.7217582,44.4698901 Z" id="Fill-3" fill="#607B89" mask="url(#mask-2)"></path>
                </g>
            </g>
        </g>
    </g>
</svg>