<?xml version="1.0" encoding="UTF-8" standalone="no"?>
<svg width="79px" height="80px" viewBox="0 0 79 80" version="1.1" xmlns="http://www.w3.org/2000/svg" xmlns:xlink="http://www.w3.org/1999/xlink">
    <!-- Generator: Sketch 42 (36781) - http://www.bohemiancoding.com/sketch -->
    <title>Page 1</title>
    <desc>Created with Sketch.</desc>
    <defs>
        <polygon id="path-1" points="0.000500018311 0.0039408867 78.817734 0.0039408867 78.817734 78.8161576 0.000500018311 78.8161576 0.000500018311 0.0039408867"></polygon>
    </defs>
    <g id="annotations" stroke="none" stroke-width="1" fill="none" fill-rule="evenodd">
        <g id="Home" transform="translate(-728.000000, -953.000000)">
            <g id="Page-1" transform="translate(728.000000, 953.000000)">
                <g id="Group-10">
                    <g id="Group-3" transform="translate(0.000000, 0.259179)">
                        <mask id="mask-2" fill="white">
                            <use xlink:href="#path-1"></use>
                        </mask>
                        <g id="Clip-2"></g>
                        <path d="M70.63133,44.3058128 C68.9564532,56.7353695 59.6480788,67.3166502 47.1318227,70.733399 C44.5505419,71.4072906 42.6116256,70.2959606 41.6855172,69.5787192 C39.9515271,68.230936 38.9229557,66.1028571 38.9387192,63.880197 C38.9426601,62.0200985 38.7337931,60.1284729 38.3160591,58.2565517 C36.3259113,49.4723153 29.3663054,42.5048276 20.5860099,40.5107389 C18.7534975,40.0969458 16.8894581,39.8841379 15.049064,39.8841379 C14.9938916,39.8841379 14.9347783,39.880197 14.8953695,39.8841379 C12.6884729,39.8841379 10.5800985,38.8595074 9.24019704,37.1373399 C8.51901478,36.2112315 7.4155665,34.2762562 8.16827586,31.3875862 C11.4707389,19.2141872 22.0323153,9.89793103 34.4461084,8.19546798 C44.5268966,6.81615764 54.4224631,10.1028571 61.5515271,17.2200985 C68.684532,24.3412808 71.9948768,34.2092611 70.63133,44.3058128 M67.12,11.6437438 C58.2333005,2.768867 45.9140887,-1.33359606 33.3781281,0.388571429 C17.8707389,2.51270936 4.68059113,14.1383251 0.589950739,29.239803 L0.455960591,29.7166502 C-0.651428571,33.9806897 0.282561576,38.4496552 3.01753695,41.9728079 C5.85497537,45.6260099 10.4736946,47.7501478 14.9702463,47.7659113 C16.2470936,47.777734 17.5515271,47.9038424 18.840197,48.195468 C24.5899507,49.5038424 29.3268966,54.2407882 30.6273892,59.986601 C30.9150739,61.2792118 31.0608867,62.5757635 31.0569458,63.8447291 C31.0293596,68.4949754 33.2007882,72.9678818 36.8539901,75.8053202 C39.4037438,77.7836453 42.4461084,78.8161576 45.5515271,78.8161576 C46.7416749,78.8161576 47.9397044,78.6664039 49.1219704,78.3550739 L49.5515271,78.2407882 C64.7397044,74.0989163 76.3456158,60.8851232 78.4461084,45.3619704 C80.1406897,32.8063054 76.0145813,20.5146798 67.12,11.6437438" id="Fill-1" fill="#607B89" mask="url(#mask-2)"></path>
                    </g>
                    <path d="M38.5962562,12.0853859 L35.4671921,12.0853859 C33.2918227,12.0853859 31.5263054,13.8509031 31.5263054,16.0262726 C31.5263054,18.201642 33.2918227,19.9671593 35.4671921,19.9671593 L38.5962562,19.9671593 C40.7755665,19.9671593 42.5371429,18.201642 42.5371429,16.0262726 C42.5371429,13.8509031 40.7755665,12.0853859 38.5962562,12.0853859" id="Fill-4" fill="#607B89"></path>
                    <path d="M51.2307389,27.8489327 L54.359803,27.8489327 C56.5391133,27.8489327 58.3006897,26.0834154 58.3006897,23.908046 C58.3006897,21.7326765 56.5391133,19.9671593 54.359803,19.9671593 L51.2307389,19.9671593 C49.0553695,19.9671593 47.2898522,21.7326765 47.2898522,23.908046 C47.2898522,26.0834154 49.0553695,27.8489327 51.2307389,27.8489327" id="Fill-6" fill="#607B89"></path>
                    <path d="M55.1716256,39.6696223 C55.1716256,41.8449918 56.9371429,43.610509 59.1125123,43.610509 L62.2415764,43.610509 C64.4208867,43.610509 66.1824631,41.8449918 66.1824631,39.6696223 C66.1824631,37.4942529 64.4208867,35.7287356 62.2415764,35.7287356 L59.1125123,35.7287356 C56.9371429,35.7287356 55.1716256,37.4942529 55.1716256,39.6696223" id="Fill-8" fill="#607B89"></path>
                    <path d="M54.359803,51.4922824 L51.2307389,51.4922824 C49.0553695,51.4922824 47.2898522,53.2577997 47.2898522,55.4331691 C47.2898522,57.6085386 49.0553695,59.3740558 51.2307389,59.3740558 L54.359803,59.3740558 C56.5391133,59.3740558 58.3006897,57.6085386 58.3006897,55.4331691 C58.3006897,53.2577997 56.5391133,51.4922824 54.359803,51.4922824" id="Fill-10" fill="#607B89"></path>
                </g>
            </g>
        </g>
    </g>
</svg>