<?xml version="1.0" encoding="UTF-8" standalone="no"?>
<svg width="58px" height="80px" viewBox="0 0 58 80" version="1.1" xmlns="http://www.w3.org/2000/svg" xmlns:xlink="http://www.w3.org/1999/xlink">
    <!-- Generator: Sketch 42 (36781) - http://www.bohemiancoding.com/sketch -->
    <title>Page 1</title>
    <desc>Created with Sketch.</desc>
    <defs></defs>
    <g id="annotations" stroke="none" stroke-width="1" fill="none" fill-rule="evenodd">
        <g id="Home" transform="translate(-1079.000000, -576.000000)" fill="#607B89">
            <path d="M1095.592,648 L1119.592,648 L1119.592,640 L1095.592,640 L1095.592,648 Z M1101.86,587.884 L1102.764,584 L1103.592,584 L1103.592,612 L1111.592,612 L1111.592,584 L1112.416,584 L1113.32,587.888 C1115.448,597.036 1120.168,605.536 1127.02,612.608 L1120.688,632 L1094.492,632 L1088.16,612.608 C1095.016,605.536 1099.736,597.036 1101.86,587.884 L1101.86,587.884 Z M1136.18,610.332 L1134.336,608.592 C1127.644,602.264 1123.072,594.476 1121.108,586.072 L1118.764,576 L1096.416,576 L1094.072,586.072 C1092.112,594.48 1087.54,602.264 1080.844,608.592 L1079,610.332 L1087.592,636.64 L1087.592,656 L1127.592,656 L1127.592,636.64 L1136.18,610.332 Z" id="Page-1"></path>
        </g>
    </g>
</svg>