<?xml version="1.0" encoding="UTF-8" standalone="no"?>
<svg width="80px" height="72px" viewBox="0 0 80 72" version="1.1" xmlns="http://www.w3.org/2000/svg" xmlns:xlink="http://www.w3.org/1999/xlink">
    <!-- Generator: Sketch 42 (36781) - http://www.bohemiancoding.com/sketch -->
    <title>Page 1</title>
    <desc>Created with Sketch.</desc>
    <defs></defs>
    <g id="annotations" stroke="none" stroke-width="1" fill="none" fill-rule="evenodd">
        <g id="Home" transform="translate(-390.000000, -580.000000)" fill="#607B89">
            <g id="Page-1" transform="translate(390.000000, 580.000000)">
                <path d="M25.5276,0 L17.5276,15.9742351 L-0.0004,15.9742351 L-0.0004,71.884058 L79.9996,71.884058 L79.9996,15.9742351 L62.4756,15.9742351 L54.4716,0 L25.5276,0 Z M30.4756,7.98711755 L49.5276,7.98711755 L53.5276,15.9742351 L26.4756,15.9742351 L30.4756,7.98711755 Z M7.9996,23.9613527 L13.5276,23.9613527 L66.4756,23.9613527 L71.9996,23.9613527 L71.9996,63.8969404 L7.9996,63.8969404 L7.9996,23.9613527 Z" id="Fill-1"></path>
                <polygon id="Fill-2" points="60 35.942029 68 35.942029 68 27.9549114 60 27.9549114"></polygon>
                <path d="M40.0008,51.9158647 C35.5888,51.9158647 32.0008,48.3336425 32.0008,43.9287472 C32.0008,39.5238519 35.5888,35.9416296 40.0008,35.9416296 C44.4128,35.9416296 48.0008,39.5238519 48.0008,43.9287472 C48.0008,48.3336425 44.4128,51.9158647 40.0008,51.9158647 M40.0008,27.9545121 C31.1768,27.9545121 24.0008,35.1189565 24.0008,43.9287472 C24.0008,52.7385378 31.1768,59.9029823 40.0008,59.9029823 C48.8248,59.9029823 56.0008,52.7385378 56.0008,43.9287472 C56.0008,35.1189565 48.8248,27.9545121 40.0008,27.9545121" id="Fill-3"></path>
            </g>
        </g>
    </g>
</svg>