<?xml version="1.0" encoding="UTF-8" standalone="no"?>
<svg width="80px" height="80px" viewBox="0 0 80 80" version="1.1" xmlns="http://www.w3.org/2000/svg" xmlns:xlink="http://www.w3.org/1999/xlink">
    <!-- Generator: Sketch 42 (36781) - http://www.bohemiancoding.com/sketch -->
    <title>Group 9</title>
    <desc>Created with Sketch.</desc>
    <defs></defs>
    <g id="annotations" stroke="none" stroke-width="1" fill="none" fill-rule="evenodd">
        <g id="Home" transform="translate(-728.000000, -576.000000)" fill="#607B89">
            <g id="Group-9" transform="translate(728.000000, 576.000000)">
                <path d="M0,0.0008 L0,80.0008 L1.204,80.0008 L45.648,80.0008 L54.796,80.0008 L77.996,80.0008 L80,80.0008 L80,0.0008 L0,0.0008 Z M8,8.0008 L72,8.0008 L72,65.6008 L52,17.5968 L38.34,50.3808 L28,31.7648 L8,67.7648 L8,8.0008 Z M43.292,59.2928 L52,38.3968 L66,72.0008 L50.352,72.0008 L43.292,59.2928 Z M28,48.2368 L34.42,59.7888 L34.416,59.7928 L41.204,72.0008 L14.796,72.0008 L28,48.2368 Z" id="Fill-1"></path>
                <path d="M19.9992,11.9996 C15.5872,11.9996 11.9992,15.5876 11.9992,19.9996 C11.9992,24.4116 15.5872,27.9996 19.9992,27.9996 C24.4112,27.9996 27.9992,24.4116 27.9992,19.9996 C27.9992,15.5876 24.4112,11.9996 19.9992,11.9996" id="Fill-2"></path>
            </g>
        </g>
    </g>
</svg>