<?xml version="1.0" encoding="UTF-8" standalone="no"?>
<svg width="80px" height="80px" viewBox="0 0 80 80" version="1.1" xmlns="http://www.w3.org/2000/svg" xmlns:xlink="http://www.w3.org/1999/xlink">
    <!-- Generator: Sketch 42 (36781) - http://www.bohemiancoding.com/sketch -->
    <title>Page 1</title>
    <desc>Created with Sketch.</desc>
    <defs></defs>
    <g id="annotations" stroke="none" stroke-width="1" fill="none" fill-rule="evenodd">
        <g id="Home" transform="translate(-728.000000, -1324.000000)" fill="#607B89">
            <path d="M782.176,1324 L768,1338.312 L753.824,1324 L742.788,1324 L728,1333.86 L728,1361.548 L740,1357.548 L740,1404 L796,1404 L796,1357.548 L808,1361.548 L808,1333.86 L793.208,1324 L782.176,1324 Z M785.508,1332 L790.788,1332 L800,1338.14 L800,1350.448 L788,1346.448 L788,1396 L747.996,1396 L747.996,1346.448 L736,1350.448 L736,1338.14 L745.212,1332 L750.488,1332 L768,1349.688 L785.508,1332 Z" id="Page-1"></path>
        </g>
    </g>
</svg>