<?xml version="1.0" encoding="UTF-8" standalone="no"?>
<svg width="86px" height="85px" viewBox="0 0 86 85" version="1.1" xmlns="http://www.w3.org/2000/svg" xmlns:xlink="http://www.w3.org/1999/xlink">
    <!-- Generator: Sketch 42 (36781) - http://www.bohemiancoding.com/sketch -->
    <title>Fill 1</title>
    <desc>Created with Sketch.</desc>
    <defs></defs>
    <g id="annotations" stroke="none" stroke-width="1" fill="none" fill-rule="evenodd">
        <g id="Home" transform="translate(-387.000000, -950.000000)" fill="#607B89">
            <path d="M450.869,988.148 L429.60625,992.41925 L408.06725,988.148 L395.959,991.18675 C398.628,975.075 412.704,962.75 429.61475,962.75 C446.52975,962.75 460.61,975.08775 463.2705,991.21225 L450.869,988.148 Z M433.86475,954.46675 L433.86475,950 L425.36475,950 L425.36475,954.46675 C403.8555,956.60025 387,974.74775 387,996.75 L387,1002.20275 L408.284,996.85625 L425.36475,1000.23925 L425.36475,1022.25 C425.36475,1024.596 423.4565,1026.5 421.11475,1026.5 C418.76875,1026.5 416.86475,1024.596 416.86475,1022.25 L416.86475,1018 L408.36475,1018 L408.36475,1022.25 C408.36475,1029.28375 414.081,1035 421.11475,1035 C428.14425,1035 433.86475,1029.28375 433.86475,1022.25 L433.86475,1000.23075 L450.67775,996.85625 L472.22525,1002.1815 L472.22525,996.75 C472.22525,974.74775 455.36975,956.60025 433.86475,954.46675 L433.86475,954.46675 Z" id="Fill-1"></path>
        </g>
    </g>
</svg>